{
  "accessors": [
    {
      "bufferView": 2,
      "componentType": 5126,
      "count": 1374,
      "max": [
        0.1186399981379509,
        0.11104600131511688,
        0.13298900425434113
      ],
      "min": [
        -0.06319300085306168,
        -0.11104600131511688,
        0.0013160000089555979
      ],
      "type": "VEC3"
    },
    {
      "bufferView": 2,
      "byteOffset": 16488,
      "componentType": 5126,
      "count": 1374,
      "max": [
        0.9999395608901978,
        1.0,
        0.9999985694885254
      ],
      "min": [
        -0.983828604221344,
        -1.0,
        -0.9808642268180847
      ],
      "type": "VEC3"
    },
    {
      "bufferView": 3,
      "componentType": 5126,
      "count": 1374,
      "max": [
        0.9896137714385986,
        0.6160382032394409,
        0.9843896627426147,
        1.0
      ],
      "min": [
        -0.9896277189254761,
        -1.0,
        -0.9843921065330505,
        1.0
      ],
      "type": "VEC4"
    },
    {
      "bufferView": 1,
      "componentType": 5126,
      "count": 1374,
      "max": [
        0.9387590289115906,
        0.9605010151863098
      ],
      "min": [
        0.03967899829149246,
        0.00406099995598197
      ],
      "type": "VEC2"
    },
    {
      "bufferView": 0,
      "componentType": 5125,
      "count": 6312,
      "type": "SCALAR"
    },
    {
      "bufferView": 2,
      "byteOffset": 32976,
      "componentType": 5126,
      "count": 13224,
      "max": [
        0.1313209980726242,
        0.11457300186157227,
        0.23636600375175476
      ],
      "min": [
        -0.143204003572464,
        -0.11457300186157227,
        0.015598000027239323
      ],
      "type": "VEC3"
    },
    {
      "bufferView": 2,
      "byteOffset": 191664,
      "componentType": 5126,
      "count": 13224,
      "max": [
        0.9950119853019714,
        0.9998764991760254,
        0.9999315738677979
      ],
      "min": [
        -1.0,
        -0.9998764991760254,
        -0.9993590116500854
      ],
      "type": "VEC3"
    },
    {
      "bufferView": 3,
      "byteOffset": 21984,
      "componentType": 5126,
      "count": 13224,
      "max": [
        0.9997999668121338,
        1.0,
        0.9994421601295471,
        1.0
      ],
      "min": [
        -0.999803900718689,
        -1.0,
        -0.9999551177024841,
        -1.0
      ],
      "type": "VEC4"
    },
    {
      "bufferView": 1,
      "byteOffset": 10992,
      "componentType": 5126,
      "count": 13224,
      "max": [
        0.9785569906234741,
        0.9772509932518005
      ],
      "min": [
        0.00406099995598197,
        0.00406099995598197
      ],
      "type": "VEC2"
    },
    {
      "bufferView": 0,
      "byteOffset": 25248,
      "componentType": 5125,
      "count": 64464,
      "type": "SCALAR"
    },
    {
      "bufferView": 2,
      "byteOffset": 350352,
      "componentType": 5126,
      "count": 5442,
      "max": [
        0.13410800695419312,
        0.07896500080823898,
        0.1389250010251999
      ],
      "min": [
        0.037365999072790146,
        -0.07896500080823898,
        -0.0007910000276751816
      ],
      "type": "VEC3"
    },
    {
      "bufferView": 2,
      "byteOffset": 415656,
      "componentType": 5126,
      "count": 5442,
      "max": [
        0.9999985694885254,
        0.9999244213104248,
        0.9991176724433899
      ],
      "min": [
        -0.2934136688709259,
        -0.9999244213104248,
        -1.0
      ],
      "type": "VEC3"
    },
    {
      "bufferView": 3,
      "byteOffset": 233568,
      "componentType": 5126,
      "count": 5442,
      "max": [
        0.9999241232872009,
        0.9817897081375122,
        0.9896023869514465,
        1.0
      ],
      "min": [
        -1.0,
        -0.9817128777503967,
        -0.9999985694885254,
        -1.0
      ],
      "type": "VEC4"
    },
    {
      "bufferView": 1,
      "byteOffset": 116784,
      "componentType": 5126,
      "count": 5442,
      "max": [
        0.9624249935150146,
        0.9353280067443848
      ],
      "min": [
        0.00406099995598197,
        0.00406099995598197
      ],
      "type": "VEC2"
    },
    {
      "bufferView": 0,
      "byteOffset": 283104,
      "componentType": 5125,
      "count": 27132,
      "type": "SCALAR"
    },
    {
      "bufferView": 2,
      "byteOffset": 480960,
      "componentType": 5126,
      "count": 15070,
      "max": [
        0.015699999406933784,
        0.1198199987411499,
        0.11973100155591965
      ],
      "min": [
        -0.06951600313186646,
        -0.1198199987411499,
        0.04418199881911278
      ],
      "type": "VEC3"
    },
    {
      "bufferView": 2,
      "byteOffset": 661800,
      "componentType": 5126,
      "count": 15070,
      "max": [
        0.9998555183410645,
        1.0,
        0.9998288750648499
      ],
      "min": [
        -0.9998621940612793,
        -1.0,
        -0.9998380541801453
      ],
      "type": "VEC3"
    },
    {
      "bufferView": 3,
      "byteOffset": 320640,
      "componentType": 5126,
      "count": 15070,
      "max": [
        0.999987781047821,
        0.9999999403953552,
        0.9927371144294739,
        1.0
      ],
      "min": [
        -0.9999719858169556,
        -1.0,
        -0.9939635992050171,
        -1.0
      ],
      "type": "VEC4"
    },
    {
      "bufferView": 1,
      "byteOffset": 160320,
      "componentType": 5126,
      "count": 15070,
      "max": [
        0.9959390163421631,
        0.9808200001716614
      ],
      "min": [
        0.03967899829149246,
        0.14323599636554718
      ],
      "type": "VEC2"
    },
    {
      "bufferView": 0,
      "byteOffset": 391632,
      "componentType": 5125,
      "count": 80256,
      "type": "SCALAR"
    },
    {
      "bufferView": 2,
      "byteOffset": 842640,
      "componentType": 5126,
      "count": 8104,
      "max": [
        0.10693900287151337,
        0.10534299910068512,
        0.07822199910879135
      ],
      "min": [
        -0.0006099999882280827,
        -0.10534299910068512,
        -0.013133999891579151
      ],
      "type": "VEC3"
    },
    {
      "bufferView": 2,
      "byteOffset": 939888,
      "componentType": 5126,
      "count": 8104,
      "max": [
        0.9997492432594299,
        0.9989789128303528,
        1.0
      ],
      "min": [
        -0.4924931526184082,
        -0.9989789128303528,
        -0.9998039603233337
      ],
      "type": "VEC3"
    },
    {
      "bufferView": 3,
      "byteOffset": 561760,
      "componentType": 5126,
      "count": 8104,
      "max": [
        1.0,
        0.9999634623527527,
        0.9997568726539612,
        1.0
      ],
      "min": [
        -0.9999696016311646,
        -0.9997636675834656,
        -0.99892258644104,
        -1.0
      ],
      "type": "VEC4"
    },
    {
      "bufferView": 1,
      "byteOffset": 280880,
      "componentType": 5126,
      "count": 8104,
      "max": [
        0.8574939966201782,
        0.9478440284729004
      ],
      "min": [
        0.03967899829149246,
        0.00406099995598197
      ],
      "type": "VEC2"
    },
    {
      "bufferView": 0,
      "byteOffset": 712656,
      "componentType": 5125,
      "count": 40128,
      "type": "SCALAR"
    },
    {
      "bufferView": 2,
      "byteOffset": 1037136,
      "componentType": 5126,
      "count": 6150,
      "max": [
        0.08375900238752365,
        0.10159700363874435,
        0.061583999544382095
      ],
      "min": [
        0.006496000103652477,
        -0.10159700363874435,
        0.017026999965310097
      ],
      "type": "VEC3"
    },
    {
      "bufferView": 2,
      "byteOffset": 1110936,
      "componentType": 5126,
      "count": 6150,
      "max": [
        0.9995051026344299,
        0.9999287128448486,
        0.9996758103370667
      ],
      "min": [
        -0.9997956156730652,
        -0.9999287128448486,
        -0.998528778553009
      ],
      "type": "VEC3"
    },
    {
      "bufferView": 3,
      "byteOffset": 691424,
      "componentType": 5126,
      "count": 6150,
      "max": [
        0.9995094537734985,
        0.9859046936035156,
        0.9320487380027771,
        1.0
      ],
      "min": [
        -0.9999574422836304,
        -0.999945878982544,
        -0.8960549235343933,
        1.0
      ],
      "type": "VEC4"
    },
    {
      "bufferView": 1,
      "byteOffset": 345712,
      "componentType": 5126,
      "count": 6150,
      "max": [
        0.9530389904975891,
        0.8719189763069153
      ],
      "min": [
        0.10363700240850449,
        0.2019069939851761
      ],
      "type": "VEC2"
    },
    {
      "bufferView": 0,
      "byteOffset": 873168,
      "componentType": 5125,
      "count": 35136,
      "type": "SCALAR"
    }
  ],
  "asset": {
    "extras": {
      "author": "Glycine25 (https://sketchfab.com/Glycine25)",
      "license": "CC-BY-4.0 (http://creativecommons.org/licenses/by/4.0/)",
      "source": "https://sketchfab.com/3d-models/spacemarine-helmet-f3c5d0fb2bed45f0aab5c12fdd06c3d7",
      "title": "spacemarine helmet"
    },
    "generator": "Sketchfab-16.64.0",
    "version": "2.0"
  },
  "bufferViews": [
    {
      "buffer": 0,
      "byteLength": 1013712,
      "name": "floatBufferViews",
      "target": 34963
    },
    {
      "buffer": 0,
      "byteLength": 394912,
      "byteOffset": 1013712,
      "byteStride": 8,
      "name": "floatBufferViews",
      "target": 34962
    },
    {
      "buffer": 0,
      "byteLength": 1184736,
      "byteOffset": 1408624,
      "byteStride": 12,
      "name": "floatBufferViews",
      "target": 34962
    },
    {
      "buffer": 0,
      "byteLength": 789824,
      "byteOffset": 2593360,
      "byteStride": 16,
      "name": "floatBufferViews",
      "target": 34962
    }
  ],
  "buffers": [
    {
      "byteLength": 3383184,
      "uri": "scene.bin"
    }
  ],
  "images": [
    {
      "uri": "textures/Material.002_baseColor.png"
    },
    {
      "uri": "textures/Material.002_metallicRoughness.png"
    },
    {
      "uri": "textures/Material.002_normal.png"
    }
  ],
  "materials": [
    {
      "doubleSided": true,
      "name": "Material.002",
      "normalTexture": {
        "index": 2
      },
      "pbrMetallicRoughness": {
        "baseColorTexture": {
          "index": 0
        },
        "metallicRoughnessTexture": {
          "index": 1
        }
      }
    }
  ],
  "meshes": [
    {
      "name": "Object_0",
      "primitives": [
        {
          "attributes": {
            "NORMAL": 1,
            "POSITION": 0,
            "TANGENT": 2,
            "TEXCOORD_0": 3
          },
          "indices": 4,
          "material": 0,
          "mode": 4
        }
      ]
    },
    {
      "name": "Object_1",
      "primitives": [
        {
          "attributes": {
            "NORMAL": 6,
            "POSITION": 5,
            "TANGENT": 7,
            "TEXCOORD_0": 8
          },
          "indices": 9,
          "material": 0,
          "mode": 4
        }
      ]
    },
    {
      "name": "Object_2",
      "primitives": [
        {
          "attributes": {
            "NORMAL": 11,
            "POSITION": 10,
            "TANGENT": 12,
            "TEXCOORD_0": 13
          },
          "indices": 14,
          "material": 0,
          "mode": 4
        }
      ]
    },
    {
      "name": "Object_3",
      "primitives": [
        {
          "attributes": {
            "NORMAL": 16,
            "POSITION": 15,
            "TANGENT": 17,
            "TEXCOORD_0": 18
          },
          "indices": 19,
          "material": 0,
          "mode": 4
        }
      ]
    },
    {
      "name": "Object_4",
      "primitives": [
        {
          "attributes": {
            "NORMAL": 21,
            "POSITION": 20,
            "TANGENT": 22,
            "TEXCOORD_0": 23
          },
          "indices": 24,
          "material": 0,
          "mode": 4
        }
      ]
    },
    {
      "name": "Object_5",
      "primitives": [
        {
          "attributes": {
            "NORMAL": 26,
            "POSITION": 25,
            "TANGENT": 27,
            "TEXCOORD_0": 28
          },
          "indices": 29,
          "material": 0,
          "mode": 4
        }
      ]
    }
  ],
  "nodes": [
    {
      "children": [
        1
      ],
      "matrix": [
        1.0,
        0.0,
        0.0,
        0.0,
        0.0,
        2.220446049250313e-16,
        -1.0,
        0.0,
        0.0,
        1.0,
        2.220446049250313e-16,
        0.0,
        0.0,
        0.0,
        0.0,
        1.0
      ],
      "name": "Sketchfab_model"
    },
    {
      "children": [
        2,
        3,
        4,
        5,
        6,
        7
      ],
      "name": "helm.obj.cleaner.materialmerger.gles"
    },
    {
      "mesh": 0,
      "name": "Object_2"
    },
    {
      "mesh": 1,
      "name": "Object_3"
    },
    {
      "mesh": 2,
      "name": "Object_4"
    },
    {
      "mesh": 3,
      "name": "Object_5"
    },
    {
      "mesh": 4,
      "name": "Object_6"
    },
    {
      "mesh": 5,
      "name": "Object_7"
    }
  ],
  "samplers": [
    {
      "magFilter": 9729,
      "minFilter": 9987,
      "wrapS": 10497,
      "wrapT": 10497
    }
  ],
  "scene": 0,
  "scenes": [
    {
      "name": "Sketchfab_Scene",
      "nodes": [
        0
      ]
    }
  ],
  "textures": [
    {
      "sampler": 0,
      "source": 0
    },
    {
      "sampler": 0,
      "source": 1
    },
    {
      "sampler": 0,
      "source": 2
    }
  ]
}
